# xmcd
#
# Track frame offsets: 
#        151
#        13399
#        27272
#        40569
#        54029
#        68569
#        82411
#        93863
#        107569
#        120901
#        132248
#        144111
#        156214
#        169757
#        182516
#        197341
#        210138
#        223094
#        236785
#        249388
#        262066
#        273764
#
# Disc length: 3814 seconds
#
# Revision: 0
# Processed by: cddbd v1.5.2PL0 Copyright (c) Steve Scherf et al.
# Submitted via: ExactAudioCopy v0.95b4
#
DISCID=1f0ee416
DTITLE=Blind Lemon Jefferson - Texas Blues - Box - CD2
DYEAR=2007
DGENRE=Blues
TTITLE0=Bad Luck Blues
TTITLE1=Black Snake Moan
TTITLE2=Match Box Blues
TTITLE3=Easy Rider Blues
TTITLE4=Match Box Blues #2
TTITLE5=Match Box Blues #4
TTITLE6=Rising High Water Blues
TTITLE7=Weary Dogs Blues
TTITLE8=Right Of Way Blues
TTITLE9=Teddy Bear Blues #1
TTITLE10=Teddy Bear Blues #1
TTITLE11=Black Snake Dream Blues
TTITLE12=Hot Dogs
TTITLE13=He Arose From The Dead
TTITLE14=Struck Sorrow Blues
TTITLE15=Rambler Blues
TTITLE16=Chinch Bug Blues
TTITLE17=Deceitful Brownskin Blues
TTITLE18=Sunshine Special
TTITLE19=Gone Dead On You Blues
TTITLE20=Where Shall I Be ?
TTITLE21=See That My Grave s Kept Clean
EXTD=
EXTT0=
EXTT1=
EXTT2=
EXTT3=
EXTT4=
EXTT5=
EXTT6=
EXTT7=
EXTT8=
EXTT9=
EXTT10=
EXTT11=
EXTT12=
EXTT13=
EXTT14=
EXTT15=
EXTT16=
EXTT17=
EXTT18=
EXTT19=
EXTT20=
EXTT21=
PLAYORDER=
